HIERARCHY
ROOT Hips
{
	OFFSET 0.000000 0.000000 0.000000 
	CHANNELS 6 Xposition Yposition Zposition Yrotation Zrotation Xrotation 
	JOINT Lumbar
	{
		OFFSET 0.000000 0.000000 0.000000 
		CHANNELS 3 Zrotation Xrotation Yrotation
		JOINT Neck
		{
			OFFSET 0.000000 0.445665 0.000000 
			CHANNELS 3 Zrotation Xrotation Yrotation
			End Site
			{
				OFFSET 0.000000 0.227535 0.000000 
			}
		}
		JOINT RightShoulder
		{
			OFFSET 0.019635 0.377685 0.194865 
			CHANNELS 3 Zrotation Xrotation Yrotation
			JOINT RightElbow
			{
				OFFSET 0.000000 -0.243375 0.000000 
				CHANNELS 2 Zrotation Yrotation
				JOINT RightWrist
				{
					OFFSET 0.000000 -0.264825 0.000000 
					CHANNELS 2 Zrotation Xrotation
					End Site
					{
						OFFSET 0.006600 -0.176220 0.000990 
					}
				}
			}
		}
		JOINT LeftShoulder
		{
			OFFSET 0.019635 0.377685 -0.194865 
			CHANNELS 3 Zrotation Xrotation Yrotation
			JOINT LeftElbow
			{
				OFFSET 0.000000 -0.243375 0.000000 
				CHANNELS 2 Zrotation Yrotation
				JOINT LeftWrist
				{
					OFFSET 0.000000 -0.264825 0.000000 
					CHANNELS 2 Zrotation Xrotation
					End Site
					{
						OFFSET 0.006600 -0.176220 -0.000990 
					}
				}
			}
		}
	}
	JOINT RightHip
	{
		OFFSET 0.052140 -0.069960 0.075570 
		CHANNELS 3 Zrotation Xrotation Yrotation
		JOINT RightKnee
		{
			OFFSET 0.000000 -0.402270 0.000000 
			CHANNELS 1 Zrotation
			JOINT RightAnkle
			{
				OFFSET 0.000000 -0.404085 0.000000 
				CHANNELS 3 Zrotation Xrotation Yrotation
				End Site
				{
					OFFSET 0.204105 -0.089430 0.008415 
				}
			}
		}
	}
	JOINT LeftHip
	{
		OFFSET 0.052140 -0.069960 -0.075570 
		CHANNELS 3 Zrotation Xrotation Yrotation
		JOINT LeftKnee
		{
			OFFSET 0.000000 -0.402270 0.000000 
			CHANNELS 1 Zrotation
			JOINT LeftAnkle
			{
				OFFSET 0.000000 -0.404085 0.000000 
				CHANNELS 3 Zrotation Xrotation Yrotation
				End Site
				{
					OFFSET 0.204105 -0.089430 -0.008415 
				}
			}
		}
	}
}
MOTION
Frames: 11
Frame Time: 0.02
-0.00211 0.00042 0.00137 28.06442 -29.23555 -4.12463 43.79307 2.98073 0.18792 15.0374 -8.71398 -0.12925 28.24776 -11.09426 17.89448 32.0154 83.90954 1.03508 -1.45777 33.0042 5.76503 -19.86797 43.96976 -81.83782 -1.96201 1.56662 42.99984 0.00518 -0.30007 -19.89139 -6.78905 -4.31 -2.87708 49.26385 4.30336 6.63848 -24.70399 -7.49048 0.76128 1.02713
-0.00142 0.00033 0.00185 28.12102 -29.24448 -4.10137 43.87087 2.99926 0.30426 14.55497 -8.4778 -0.13038 26.66271 -11.13973 17.05419 31.64068 83.93996 1.11917 -1.42708 30.46263 6.28761 -19.46812 44.1659 -81.80568 -1.9869 1.42838 42.98306 -0.03177 -0.62917 -19.91037 -6.76275 -4.26944 -2.85629 49.26033 4.23434 6.24995 -24.70557 -7.46082 0.81088 1.05121
-0.00072 0.00023 0.00232 28.17743 -29.25343 -4.07815 43.9486 3.01781 0.4201 14.07317 -8.24222 -0.13151 25.07903 -11.18519 16.21447 31.26666 83.97033 1.20277 -1.39638 27.92377 6.80896 -19.06772 44.36085 -81.77297 -2.01222 1.29037 42.96628 -0.06868 -0.95772 -19.92928 -6.7365 -4.22895 -2.83552 49.25677 4.16542 5.86208 -24.70714 -7.43122 0.86039 1.07526
-3e-05 0.00013 0.00279 28.23385 -29.26234 -4.05497 44.02619 3.03629 0.53606 13.5921 -8.00674 -0.13264 23.49833 -11.23057 15.37655 30.89301 84.00055 1.28654 -1.36581 25.38925 7.33002 -18.66883 44.55629 -81.74082 -2.03711 1.15254 42.94955 -0.10553 -1.2859 -19.9482 -6.71028 -4.1885 -2.81479 49.25325 4.09658 5.47465 -24.70872 -7.40165 0.90985 1.09928
0.00066 3e-05 0.00327 28.29046 -29.27123 -4.03176 44.1038 3.05473 0.65255 13.11068 -7.77072 -0.13377 21.91744 -11.27586 14.53848 30.51884 84.03109 1.37094 -1.33516 22.85379 7.85207 -18.2711 44.75312 -81.7095 -2.06137 1.01453 42.93285 -0.1424 -1.61443 -19.96721 -6.68401 -4.14801 -2.79404 49.24978 4.02769 5.08679 -24.71029 -7.37205 0.95938 1.12331
0.00136 -6e-05 0.00374 28.34648 -29.2803 -4.00851 44.18177 3.0735 0.767 12.62811 -7.53611 -0.1349 20.32794 -11.32163 13.69518 30.14518 84.06126 1.45288 -1.30428 20.30788 8.37189 -17.86512 44.94411 -81.67388 -2.08891 0.87651 42.91588 -0.1794 -1.94298 -19.9859 -6.65781 -4.10751 -2.77324 49.24603 3.95872 4.69893 -24.71187 -7.34247 1.00887 1.14739
0.00205 -0.00016 0.00422 28.4036 -29.28899 -3.98539 44.25891 3.09159 0.88549 12.14849 -7.29887 -0.13603 18.7579 -11.36655 12.86422 29.77086 84.0914 1.53952 -1.27426 17.78627 8.8958 -17.47629 45.14664 -81.64691 -2.10985 0.73872 42.8995 -0.21608 -2.27118 -20.00522 -6.6315 -4.06708 -2.75257 49.24286 3.88998 4.31143 -24.71345 -7.31286 1.05837 1.17136
0.00274 -0.00026 0.00469 28.45974 -29.29803 -3.96213 44.33688 3.11031 1.00014 11.66595 -7.06416 -0.13716 17.16922 -11.41193 12.02025 29.39721 84.12291 1.62215 -1.24278 15.24138 9.41565 -17.07144 45.33852 -81.61204 -2.13683 0.60063 42.88251 -0.25306 -2.59965 -20.02394 -6.60529 -4.02657 -2.73178 49.23911 3.82105 3.92374 -24.71501 -7.28328 1.10786 1.19541
0.00344 -0.00035 0.00515 28.51458 -29.3075 -3.93875 44.41566 3.12977 1.11058 11.18026 -6.832 -0.13829 15.5592 -11.45921 11.16611 29.0239 84.15077 1.69858 -1.21211 12.66949 9.93197 -16.64735 45.51739 -81.56708 -2.17145 0.46244 42.86502 -0.29044 -2.92888 -20.04199 -6.57919 -3.986 -2.71081 49.23485 3.75172 3.53501 -24.71659 -7.25372 1.15741 1.21963
0.0041 -0.00046 0.00567 28.57656 -29.31452 -3.9162 44.48915 3.14492 1.2467 10.71393 -6.58352 -0.13942 14.07621 -11.49959 10.38766 28.6472 84.18362 1.80677 -1.18458 10.25714 10.4729 -16.33496 45.77114 -81.57884 -2.1629 0.32563 42.85113 -0.32563 -3.25502 -20.06408 -6.55241 -3.94589 -2.6908 49.23413 3.68417 3.1498 -24.71821 -7.22398 1.2068 1.24308
0.00486 -0.00054 0.00607 28.62371 -29.32667 -3.89183 44.57417 3.16918 1.32774 10.2061 -6.37055 -0.14055 12.323 -11.55196 9.43886 28.27863 84.21619 1.85045 -1.14546 7.5063 10.95908 -15.78648 45.86695 -81.47188 -2.24487 0.18539 42.82923 -0.36532 -3.58678 -20.07753 -6.5271 -3.90475 -2.66879 49.22556 3.61323 2.75882 -24.71967 -7.19469 1.25639 1.26805
